<svg xmlns="http://www.w3.org/2000/svg" viewBox="0 0 24 24" fill="#000000">
    <path d="M12 2C6.48 2 2 6.48 2 12s4.48 10 10 10 10-4.48 10-10S17.52 2 12 2zm0 18c-4.41 0-8-3.59-8-8s3.59-8 8-8 8 3.59 8 8-3.59 8-8 8z" />
    <circle cx="12" cy="12" r="5" />
    <path d="M21.41 12.59l-1.41-1.41C19.21 10.39 18.21 10 17.17 10c-1.03 0-2.04.39-2.83 1.17l-1.41 1.41 1.41 1.41 1.41-1.41c.39-.39.9-.59 1.41-.59.51 0 1.02.2 1.41.59l1.41 1.41 1.41-1.41zM6.83 11.41L5.41 12.83 4 11.41l1.41-1.41c.79-.79 1.8-1.17 2.83-1.17 1.03 0 2.04.39 2.83 1.17l1.41 1.41-1.41 1.41-1.41-1.41c-.39-.39-.9-.59-1.41-.59-.51 0-1.02.2-1.41.59z" opacity=".3" />
    <path d="M12 22c5.52 0 10-4.48 10-10S17.52 2 12 2 2 6.48 2 12s4.48 10 10 10zm0-18c4.41 0 8 3.59 8 8s-3.59 8-8 8-8-3.59-8-8 3.59-8 8-8z" />
    <path d="M19.07 4.93L17.66 6.34C18.16 6.84 18.5 7.5 18.5 8.25c0 1.52-1.23 2.75-2.75 2.75-.75 0-1.41-.34-1.91-.84l-1.41 1.41c.84.84 2 1.35 3.32 1.35 2.62 0 4.75-2.13 4.75-4.75 0-1.32-.51-2.48-1.35-3.32zM7.75 13.75c-1.52 0-2.75-1.23-2.75-2.75 0-.75.34-1.41.84-1.91L4.43 7.68C3.59 8.52 3.08 9.68 3.08 11c0 2.62 2.13 4.75 4.75 4.75 1.32 0 2.48-.51 3.32-1.35l-1.41-1.41c-.5.5-1.16.84-1.91.84z" />
</svg>
